<?xml version="1.0" encoding="UTF-8"?>
<svg id="Layer_1" data-name="Layer 1" xmlns="http://www.w3.org/2000/svg" viewBox="0 0 242.65 178.02">
  <defs>
    <style>
      .cls-1 {
        stroke-width: 0px;
      }
    </style>
  </defs>
  <path class="cls-1" d="m126.02,48.93c1.15-.64,2.3-1.28,3.88-2.17,3,2.78,6.12,5.68,10.51,9.74,2.8-3.31,5.47-6.64,8.33-9.8,2.79-3.08,5.77-5.98,8.97-9.28,4.77,4.32,9.19,8.53,13.88,12.43,1.3,1.08,3.4,1.79,5.1,1.73,13.47-.45,25.33,7.7,24.72,21.98-.05,1.19,1.96,3.4,3.23,3.57,13.97,1.87,20.23,9.24,18.58,22.32-1.28,10.11-13.46,18.07-25.09,16.25-2.6-.41-5.19-1.23-7.64-2.22-8.96-3.62-8.94-3.68-15.28,3.87,5,9.98,4.21,15.58-3.69,24.11-2.93,3.17-6.24,5.99-9.29,9.05-2.56,2.57-2.04,4.8.64,7.15,2.92,2.56,5.48,5.54,8.22,8.31,1.16,1.18,2.21,2.54,3.57,3.43,4.64,3.01,8.5,1.29,9.51-4.17.24-1.3.12-2.66.22-3.98.28-3.81,2.04-6.59,5.6-8.19,3.64-1.64,6.96-.88,9.72,1.68,2.17,2.02,4.33,4.28,5.74,6.85,2.39,4.37,5.51,5.59,10.31,4.54,8.83-1.93,17.75-3.43,26.91-4.51-4.11,1.43-8.18,2.94-12.32,4.25-4.87,1.54-9.97,2.48-14.66,4.42-8.43,3.5-10.8,2.98-15.64-4.66-.97-1.54-1.97-3.17-3.33-4.32-3.76-3.21-7.9-1.55-8.74,3.36-.14.82-.16,1.66-.24,2.49-.7,6.88-2.98,10.03-7.73,10.7-6.28.89-11.82-2.74-14.37-8.24-1.43-3.08-4.18-5.63-6.64-8.12-1.72-1.74-4.3-2.66-5.9-4.47-3-3.4-2.22-8.62,1.39-11.44,2.49-1.94,5.15-3.68,7.61-5.66,1.55-1.25,3.35-2.54,4.17-4.23.87-1.8.73-4.1,1.02-6.18-1.95.12-3.9.24-5.85.35-.11.52-.22,1.04-.32,1.57-8.41-7.98-16.83-15.97-24.17-22.93-12.53,11.46-24.99,22.86-36.92,33.78,7.52,8.36,14.18,15.76,20.5,22.79,8.41-7.79,15.93-14.75,23.92-22.15-5.16-4.91-9.66-9.21-14.46-13.78-1.31,1.21-2.46,2.26-4.01,3.69,3.38,3.11,6.52,6,9.83,9.05-4.64,4.6-8.95,8.87-13.67,13.55-4.22-3.81-8.49-7.66-13.78-12.44,10.94-9.64,21.64-19.05,32.34-28.47-.33-.75-.67-1.51-1-2.26.99,1,1.98,2,3.22,3.25-3.41,3.57-6.25,6.55-9.53,9.99,5.81,5.5,11.44,10.83,17.63,16.69-9.55,9.95-18.95,19.73-29.06,30.25-9.13-10.15-18.09-20.12-27.79-30.9,4.55-3.98,10.67-9.34,16.47-14.41-4.04-4.64-7.16-8.23-10.65-12.24-6.48,6.58-12.37,12.55-18.46,18.74-2.07-1.91-3.88-3.58-5.87-5.41-3.82,1.34-4.56,3.88-1.87,6.65,3.22,3.32,6.88,6.26,10.56,9.08,6.81,5.22,6.87,11.37-.48,15.89-4.56,2.8-8.23,5.72-9.82,11.22-1.29,4.45-8.41,7.65-13.21,6.8-4.79-.85-7.37-4.15-7.89-10.08-.1-1.16-.16-2.33-.4-3.47-1.1-5.07-4.89-6.51-8.69-3.06-1.79,1.62-2.93,3.98-4.29,6.05-2.16,3.29-4.9,5.84-9.07,4.65-9.38-2.69-18.67-5.68-27.99-8.6-.92-.29-1.73-.91-2.45-1.86,7.46,1.32,14.97,2.43,22.38,4,7.75,1.65,8.57,1.39,13.23-4.9,1.95-2.63,4.23-5.28,6.93-7.05,5.51-3.63,12.64.11,13.44,6.66.02.17.03.33.03.5.12,4.06,0,8.84,4.86,9.83,4.58.94,7.3-2.87,9.86-6.35,1.72-2.33,3.88-4.48,6.25-6.14,3.59-2.51,4.11-5.04,1.02-8.11-3.42-3.4-7.29-6.4-10.36-10.08-5.49-6.57-8.18-13.8-2.62-21.81-.4-.51-.66-.93-1-1.27q-6.34-6.55-14.79-3.11c-10.48,4.25-21.57,1.78-28.2-6.15-5.43-6.49-4.81-13.63-2.02-20.73,2.6-6.63,8.24-9.49,15.09-9.44,4.15.03,5.52-1.48,5.41-5.52-.39-13.9,11.86-20.63,21.84-20.11,4,.21,6.63-1.06,9.05-3.82,2.85-3.24,5.79-6.41,9.05-10.01,9.16,8.56,17.63,16.48,26.3,24.58,11.35-11.87,22.57-23.6,34.2-35.76-7.42-7.05-14.6-13.87-21.68-20.6-7.01,6.97-13.89,13.81-20.67,20.56,4.07,4.35,8.34,8.92,13.05,13.95,1.58-1.68,2.78-2.95,4.04-4.29-3.4-3.41-6.51-6.54-9.94-9.98,4.45-4.24,8.64-8.23,13.25-12.61,4.45,3.84,8.8,7.6,13.63,11.77-3.01,3.21-5.78,6.21-8.6,9.17-6.09,6.39-12.27,12.7-18.29,19.16-2.31,2.48-4.21,3.16-6.28-.49,2.79-3.07,5.65-6.22,8.81-9.69-5.87-5.56-11.51-10.91-17.11-16.23,9.53-9.15,18.84-18.09,28.6-27.46,8.44,8,18.04,17.08,27.83,26.37-6.96,7.73-13.69,15.21-20.43,22.7-1.8,1.52-3.61,3.04-5.59,4.7,9.88,9.45,19.3,18.47,28.88,27.63,1.64-1.87,2.92-3.32,4.62-5.26-1.05-.81-1.9-1.34-2.6-2.02-8.51-8.38-16.99-16.79-25.48-25.18Zm-25.8,44.16c2.07-2.85,4.14-5.69,6.22-8.56-1.82-1.99-3.58-3.92-5.37-5.88-2.98,2.85-5.59,5.34-8.8,8.41,2.93,2.16,5.5,4.04,8.06,5.92.02.48-.16,1.17.09,1.41,6.96,6.64,13.95,13.23,20.67,19.56,3.75-3.6,7.18-6.9,10.69-10.27-3.63-3.42-7.11-6.7-11.46-10.79-2.25,2.61-4.32,4.98-6.36,7.37-2.58,3.02-4.27,2.07-6.11-2.28,8.37-8.08,16.94-16.36,24.99-24.15-1-1.59-1.96-3.12-3.03-4.82-9.18,8.95-17.84,17.4-26.63,25.97-.84-.53-1.91-1.21-2.98-1.88Zm64.95-6.54c6-3.06,8.52,2.09,11.87,5.12,2.34,2.11,4.38,4.57,6.81,6.57,5.34,4.41,11.61,6.45,18.48,5.63,5.19-.62,7.05-3.58,6.53-8.66-.37-3.64-1.96-5.61-5.79-6.2-9.76-1.52-16.91-7-15.83-19.07.09-1.03-.34-2.12-.52-3.17-.58-.42-1.16-.85-1.74-1.27-.79,1.44-1.31,3.16-2.42,4.27-5.7,5.67-11.56,11.19-17.33,16.76-1.11,1.55-2.08,3.21-3.35,4.61-3.3,3.65-6.72,7.19-10.25,10.94,3.04,2.78,5.7,5.2,7.28,6.64,2.75-1.75,5.09-3.24,7.55-4.8-2.92-2.75-5.29-4.98-8.15-7.67,1.42-1.23,2.4-2.08,3.68-3.18,3.74,3.55,7.34,6.96,10.86,10.3-4.27,4.48-8.35,8.76-12.65,13.27-10.97-10.07-21.71-19.93-32.75-30.07-1.07,1.44-1.89,2.54-2.7,3.63,12.31,11.65,24.24,22.93,36.39,34.41,7.01-7.38,13.62-14.34,20.81-21.91-5.82-5.59-11.31-10.88-16.8-16.16Zm-94.8.09c-6.05-6.87-11.32-12.85-16.81-19.08-1.11,15.86-2.53,17.66-17.3,21.55-4.02,1.06-4.28,4.03-4.6,7.27-.32,3.24.75,5.64,3.91,6.64,7.92,2.52,15.28-.25,21.6-4.2,5.51-3.44,9.75-8.9,13.2-12.18Zm9.82-27.61c-2.13,1.96-4.23,3.9-6.51,6,2.72,2.9,5.05,5.39,7.6,8.11-1.4,1.17-2.47,2.05-3.3,2.75-3.93-3.7-7.52-7.09-10.33-9.74,4.17-4.82,8.13-9.39,12.24-14.14,10.53,10.03,20.49,19.53,30.66,29.22,1.33-1.47,2.39-2.64,3.66-4.05-11.52-10.79-22.78-21.33-33.03-30.93-7.32,6.69-14.37,13.13-21.48,19.62,5.32,5.27,10.25,10.15,14.96,14.83,4.74-4.37,9.44-8.7,14.42-13.29-3.24-3.04-5.87-5.52-8.91-8.38Zm16.15,53.13c-2.09-1.93-3.28-3.02-4.81-4.43-3.16,3.26-6.14,6.34-9.4,9.71-4.46-4.19-8.76-8.24-13.42-12.63,9.61-9.98,18.97-19.71,28.54-29.66-1.89-1.66-3.32-2.91-4.21-3.7-11.5,11.25-22.65,22.16-32.91,32.2,7.09,7.76,14.11,15.43,20.29,22.2,5.43-4.67,10.44-8.98,15.93-13.69Zm51.27-13.1c10.49-10.9,20.14-21,29.9-30.99,2.02-2.07,2.48-3.68.15-5.78-6.53-5.9-12.97-11.9-18.47-16.95-5.28,4.8-10.36,9.43-15.52,14.12,1.26,1.4,2.46,2.74,3.8,4.24,4.05-3.83,7.72-7.31,11.52-10.92,4.62,4.23,8.84,8.1,14.38,13.17-10.5,9.63-20.4,18.71-30.09,27.61,1.78,2.27,2.9,3.69,4.33,5.51Zm45.78,9.66c5.45,4.48,15.32,2.94,21.74-3.61,4.72-4.82,4.11-10.27,2.16-15.81-1.76-5-6.07-6.91-10.91-7.41-9.02-.95-9.04-.83-10-9.82-1.03-9.62-6.59-14.84-16.92-15.17,1.36,1.42,2.84,2.91,4.62,3.51,7.2,2.43,8.02,3.41,8.04,10.99.01,6.85,2.66,10.32,9.32,12.2,1.44.4,2.89.77,4.33,1.16,5.7,1.53,8.02,4.93,8.19,12.01.14,5.78-2.14,9.74-7.46,10.92-4.37.97-9.01.76-13.11,1.04Zm-146.16-.83c-1.59.24-3.17.47-4.76.72-7.8,1.23-14.88-2.48-15.53-8.86-1-9.74,1.73-14.68,10.62-15.82,7.03-.9,11.59-5.96,10.86-13.57-.6-6.34,1.33-8.12,7.31-9.93,1.85-.56,3.43-2.02,5.13-3.07-10.84.46-16.25,5.27-16.48,14.84-.19,8-2.83,9.38-9.93,9.63-6.81.24-10.5,3.63-11.97,9.94-1.41,6.05-.33,11.29,4.97,15.05,6.21,4.4,12.76,6.1,19.77,1.08Zm70.95,10.12c-9.91-9.43-19.34-18.41-28.95-27.57-1.49,1.6-2.58,2.78-3.97,4.28,9.65,9.23,19.06,18.22,28.33,27.09,1.64-1.36,2.77-2.3,4.59-3.81Zm-.74-60.26c-2.93,2.89-5.38,5.32-8.15,8.05,2.86,2.66,5.7,5.29,8.24,7.65,3.07-2.84,5.59-5.18,8.38-7.76-2.9-2.72-5.62-5.27-8.47-7.94Zm28.08,26.7c-2.56-2.42-5.15-4.87-7.5-7.11-2.33,2.09-4.37,3.91-6.64,5.94,2.83,2.66,5.33,5.01,8.3,7.81,1.99-2.27,3.8-4.32,5.84-6.65Zm13.63-24.89c-2.79,2.79-5.18,5.18-7.65,7.65,2.14,1.99,4.03,3.75,6.17,5.75,2.57-2.71,4.88-5.15,7.46-7.87-2.09-1.93-3.86-3.57-5.97-5.53Zm-83.5,45.07c2.4,2.2,4.4,4.03,6.34,5.8,2.28-2.13,4.17-3.9,6.28-5.88-2.33-2.22-4.43-4.21-6.69-6.36-1.98,2.15-3.74,4.06-5.94,6.45Zm47.71,32.69c-2.75,2.19-4.99,3.97-7.43,5.9,2.34,2.12,4.14,3.74,6.27,5.67,2.19-2.36,4.14-4.47,6.3-6.79-1.85-1.72-3.63-3.37-5.14-4.77Zm-10.76-111.8c1.99,2.19,3.89,4.28,5.98,6.58,1.94-2.04,3.84-4.04,5.93-6.24-2.28-1.94-4.25-3.62-6.49-5.53-1.99,1.9-3.77,3.6-5.43,5.19Z"/>
</svg>